<svg width="152" height="26" viewBox="0 0 152 26" fill="none" xmlns="http://www.w3.org/2000/svg">
<path d="M10.5565 0C11.8146 0 12.9843 0.129653 14.0655 0.388955C15.1663 0.648257 16.1099 0.957424 16.8962 1.31646C17.7022 1.67549 18.2723 1.99463 18.6065 2.27388L16.5719 5.56502C16.1787 5.20599 15.471 4.80706 14.4488 4.36824C13.4266 3.90947 12.2864 3.6801 11.0283 3.6801C9.65219 3.6801 8.48253 3.95934 7.51927 4.51784C6.55602 5.05639 6.07439 5.84427 6.07439 6.88147C6.07439 7.91868 6.56585 8.74646 7.54876 9.36479C8.55133 9.96318 9.88809 10.4618 11.559 10.8608C12.8958 11.1799 14.1441 11.6088 15.3039 12.1473C16.4834 12.6859 17.4368 13.4338 18.1642 14.3913C18.8916 15.3287 19.2552 16.5853 19.2552 18.1611C19.2552 19.5972 18.9604 20.8239 18.3706 21.8412C17.7809 22.8385 16.9847 23.6463 15.9821 24.2647C14.9796 24.8631 13.8591 25.3019 12.6206 25.5811C11.3821 25.8604 10.124 26 8.8462 26C7.35218 26 6.00559 25.8404 4.80644 25.5213C3.60728 25.2221 2.59489 24.8631 1.76924 24.4442C0.963253 24.0054 0.373506 23.6264 0 23.3072L2.03463 19.5972C2.54574 20.0959 3.38122 20.6245 4.54105 21.183C5.72055 21.7415 7.0573 22.0207 8.55133 22.0207C10.2026 22.0207 11.5394 21.6717 12.5616 20.9735C13.5838 20.2555 14.095 19.328 14.095 18.191C14.095 17.3333 13.8492 16.6452 13.3578 16.1266C12.8663 15.608 12.2078 15.1891 11.3821 14.87C10.5565 14.5508 9.65219 14.2716 8.66928 14.0322C7.72569 13.8128 6.80175 13.5236 5.89747 13.1646C5.01285 12.8055 4.19703 12.3468 3.45002 11.7883C2.72267 11.2098 2.14275 10.5117 1.71027 9.6939C1.27778 8.85615 1.06154 7.87879 1.06154 6.7618C1.06154 5.34561 1.50385 4.13886 2.38847 3.14154C3.27309 2.12428 4.43293 1.34637 5.86798 0.807823C7.30303 0.269273 8.86586 0 10.5565 0ZM36.4076 26C33.911 26 31.6897 25.4315 29.7435 24.2946C27.817 23.1577 26.3033 21.6218 25.2024 19.687C24.1016 17.7323 23.5512 15.5282 23.5512 13.0748C23.5512 10.6214 24.1016 8.40737 25.2024 6.43268C26.3033 4.458 27.817 2.89222 29.7435 1.73533C31.6897 0.578445 33.911 0 36.4076 0C38.8846 0 41.0765 0.578445 42.9833 1.73533C44.9098 2.89222 46.4137 4.458 47.4949 6.43268C48.5761 8.40737 49.1167 10.6214 49.1167 13.0748C49.1167 15.5282 48.5761 17.7323 47.4949 19.687C46.4137 21.6218 44.9098 23.1577 42.9833 24.2946C41.0765 25.4315 38.8846 26 36.4076 26ZM36.4076 21.542C37.9803 21.542 39.3465 21.173 40.5064 20.435C41.6859 19.697 42.6 18.6897 43.2487 17.4131C43.8974 16.1166 44.2218 14.6605 44.2218 13.0449C44.2218 11.4292 43.8974 9.97315 43.2487 8.67664C42.6 7.38013 41.6859 6.35289 40.5064 5.59494C39.3465 4.83698 37.9803 4.458 36.4076 4.458C34.8153 4.458 33.4294 4.83698 32.2499 5.59494C31.0704 6.35289 30.1465 7.38013 29.4781 8.67664C28.8294 9.97315 28.505 11.4292 28.505 13.0449C28.505 14.6605 28.8294 16.1166 29.4781 17.4131C30.1465 18.6897 31.0704 19.697 32.2499 20.435C33.4294 21.173 34.8153 21.542 36.4076 21.542ZM59.6114 13.1047C59.6114 15.6778 60.152 17.7323 61.2332 19.2681C62.3341 20.784 64.0149 21.542 66.2756 21.542C68.5559 21.542 70.2367 20.784 71.3179 19.2681C72.3991 17.7323 72.9397 15.6778 72.9397 13.1047V0.718068H78.0115V13.8228C78.0115 16.2163 77.5496 18.3306 76.6256 20.1657C75.7213 22.0008 74.3944 23.4369 72.6448 24.4741C70.9149 25.4914 68.7918 26 66.2756 26C63.779 26 61.6559 25.4914 59.9063 24.4741C58.1764 23.4369 56.8494 22.0008 55.9255 20.1657C55.0212 18.3306 54.5691 16.2163 54.5691 13.8228V0.718068H59.6114V13.1047ZM90.0259 25.2819H84.9245V0.718068H90.0259V4.96663H89.8784C89.9767 4.44802 90.3404 3.79977 90.9694 3.02186C91.5985 2.24396 92.4635 1.54584 93.5643 0.927502C94.6652 0.309166 95.9823 0 97.5156 0C98.6362 0 99.6191 0.159569 100.464 0.47871C101.329 0.777905 101.939 1.0771 102.293 1.37629L100.199 5.6847C99.9238 5.40545 99.4421 5.1262 98.7541 4.84695C98.0661 4.54775 97.2109 4.39816 96.1887 4.39816C94.8913 4.39816 93.7806 4.80706 92.8566 5.62486C91.9327 6.44266 91.225 7.43 90.7335 8.58688C90.2617 9.72382 90.0259 10.781 90.0259 11.7583V25.2819ZM116.495 21.6916C118.028 21.6916 119.267 21.4423 120.21 20.9436C121.154 20.445 121.744 20.0859 121.98 19.8665L124.486 23.6064C124.289 23.786 123.818 24.0752 123.071 24.4741C122.343 24.8531 121.4 25.2022 120.24 25.5213C119.1 25.8404 117.802 26 116.347 26C114.126 26 112.062 25.5013 110.155 24.504C108.248 23.4868 106.705 22.0107 105.526 20.076C104.366 18.1412 103.786 15.7775 103.786 12.985C103.786 10.1726 104.366 7.80898 105.526 5.89413C106.705 3.95934 108.248 2.49329 110.155 1.49597C112.062 0.498658 114.126 0 116.347 0C117.782 0 119.06 0.179519 120.181 0.538553C121.301 0.87764 122.225 1.25662 122.953 1.67549C123.68 2.09436 124.162 2.41351 124.397 2.63291L121.862 6.37285C121.704 6.21328 121.4 5.97391 120.947 5.65477C120.515 5.31568 119.925 5.00652 119.178 4.72728C118.431 4.44803 117.537 4.3084 116.495 4.3084C115.237 4.3084 114.008 4.65746 112.809 5.35558C111.629 6.03375 110.656 7.0211 109.89 8.31761C109.123 9.61412 108.74 11.1699 108.74 12.985C108.74 14.8002 109.123 16.3659 109.89 17.6824C110.656 18.9789 111.629 19.9762 112.809 20.6743C114.008 21.3525 115.237 21.6916 116.495 21.6916ZM132.774 14.0621C132.794 15.5382 133.108 16.8845 133.718 18.1013C134.327 19.318 135.232 20.2854 136.431 21.0035C137.649 21.7215 139.144 22.0806 140.913 22.0806C142.407 22.0806 143.675 21.8612 144.717 21.4223C145.778 20.9636 146.643 20.425 147.311 19.8067C147.98 19.1684 148.462 18.5999 148.756 18.1013L151.263 21.2428C150.614 22.2002 149.818 23.038 148.874 23.756C147.95 24.4741 146.82 25.0226 145.483 25.4016C144.147 25.8005 142.515 26 140.588 26C137.994 26 135.743 25.4415 133.836 24.3245C131.949 23.1876 130.494 21.6218 129.472 19.6272C128.449 17.6126 127.938 15.3088 127.938 12.7158C127.938 10.3222 128.42 8.16801 129.383 6.25316C130.346 4.31837 131.742 2.79248 133.57 1.67549C135.418 0.558495 137.64 0 140.235 0C142.613 0 144.677 0.50863 146.427 1.52589C148.196 2.52321 149.562 3.9394 150.526 5.77446C151.509 7.60952 152 9.80361 152 12.3567C152 12.5163 151.99 12.8055 151.971 13.2244C151.951 13.6233 151.931 13.9026 151.912 14.0621H132.774ZM147.105 10.1427C147.085 9.32489 146.85 8.42731 146.397 7.44994C145.965 6.47257 145.257 5.63483 144.274 4.93671C143.291 4.23859 141.964 3.88953 140.294 3.88953C138.564 3.88953 137.168 4.22862 136.106 4.90679C135.064 5.58497 134.298 6.41273 133.806 7.3901C133.315 8.34753 133.03 9.26505 132.951 10.1427H147.105Z" fill="#083D2D"/>
</svg>
